<?xml version="1.0" encoding="UTF-8"?>
<!DOCTYPE svg PUBLIC "-//W3C//DTD SVG 1.1//EN" "http://www.w3.org/Graphics/SVG/1.1/DTD/svg11.dtd">
<!-- Creator: CorelDRAW 2020 (64-Bit) -->
<svg xmlns="http://www.w3.org/2000/svg" xml:space="preserve" width="96px" height="99px" version="1.1" style="shape-rendering:geometricPrecision; text-rendering:geometricPrecision; image-rendering:optimizeQuality; fill-rule:evenodd; clip-rule:evenodd"
viewBox="0 0 96 99"
 xmlns:xlink="http://www.w3.org/1999/xlink"
 xmlns:xodm="http://www.corel.com/coreldraw/odm/2003">
 <defs>
  <style type="text/css">
   <![CDATA[
    .str0 {stroke:#FEFEFE;stroke-width:0.9;stroke-miterlimit:10}
    .fil0 {fill:black;fill-rule:nonzero}
    .fil2 {fill:#33CC33;fill-rule:nonzero}
    .fil1 {fill:white;fill-rule:nonzero}
   ]]>
  </style>
 </defs>
 <g id="Слой_x0020_1">
  <metadata id="CorelCorpID_0Corel-Layer"/>
  <path class="fil0" d="M34.21 80.05l0 -51.48 6.35 0 0 45.44c2.79,0 0.74,0.01 3.53,-0.02 7.8,-0.08 13.31,-0.63 16.5,-1.63 4.94,-1.55 8.87,-4.38 11.7,-8.43 2.83,-4.06 4.24,-9.04 4.24,-14.91 0,-2.83 -0.33,-5.48 -0.98,-7.94l5.27 -5.86c1.67,4.09 2.52,8.66 2.52,13.71 0,6.4 -1.44,12.03 -4.29,16.88 -2.85,4.85 -6.59,8.48 -11.13,10.78 -4.56,2.3 -11.01,3.46 -19.22,3.46l-14.49 0zm37.78 -46.71l-0.07 -0.1c-2.87,-4.08 -6.83,-6.99 -11.83,-8.66l0 -6.85c1.04,0.23 1.97,0.49 2.81,0.78 5.7,1.93 10.32,5.14 13.8,9.6l-4.71 5.23zm-70.77 -10.9l0 -6.23 40.17 0c3.86,0 7.31,0.12 10.35,0.36l0 6.41c-3.57,-0.36 -7.92,-0.54 -13.05,-0.54l-4.66 0 -11.38 0 0 57.61 -6.71 0 0 -57.61 -14.72 0z"/>
  <polygon class="fil0" points="52.5,0.14 52.5,63.98 53.92,63.98 89.89,23.99 89.89,80.01 96.52,80.01 96.52,8.98 95.01,8.98 59.3,48.54 59.3,0.14 "/>
  <path class="fil1" d="M33.53 79.39l0 -51.48 6.34 0 0 45.43c2.8,0 0.75,0.02 3.53,-0.01 7.81,-0.08 13.31,-0.63 16.5,-1.63 4.95,-1.55 8.88,-4.38 11.7,-8.43 2.83,-4.07 4.25,-9.04 4.25,-14.91 0,-2.83 -0.33,-5.48 -0.99,-7.94l5.27 -5.86c1.68,4.09 2.53,8.66 2.53,13.71 0,6.4 -1.45,12.03 -4.3,16.88 -2.85,4.85 -6.59,8.48 -11.13,10.77 -4.55,2.31 -11,3.47 -19.21,3.47l-14.49 0zm37.78 -46.71l-0.08 -0.1c-2.87,-4.08 -6.83,-6.99 -11.82,-8.66l0 -6.85c1.03,0.23 1.97,0.49 2.81,0.78 5.7,1.93 10.31,5.13 13.8,9.6l-4.71 5.23zm-70.78 -10.91l0 -6.22 40.18 0c3.86,0 7.31,0.12 10.34,0.36l0 6.4c-3.56,-0.35 -7.92,-0.54 -13.04,-0.54l-4.66 0 -11.38 0 0 57.62 -6.72 0 0 -57.62 -14.72 0z"/>
  <polygon class="fil2" points="51.81,-0.52 51.81,63.32 53.24,63.32 89.21,23.33 89.21,79.34 95.83,79.34 95.83,8.31 94.33,8.31 58.62,47.88 58.62,-0.52 "/>
  <path class="fil1 str0" d="M0.52 97.26m0 -7.4l0 -0.8 4.64 0 0 0.8 -1.89 0 0 7.4 -0.86 0 0 -7.4 -1.89 0zm5.5 7.4m4.41 -8.4c1.28,0 2.36,0.41 3.22,1.24 0.86,0.82 1.3,1.85 1.3,3.06 0,1.2 -0.42,2.22 -1.29,3.05 -0.87,0.83 -1.92,1.25 -3.16,1.25 -1.25,0 -2.32,-0.42 -3.18,-1.24 -0.86,-0.83 -1.3,-1.84 -1.3,-3.03 0,-0.78 0.2,-1.51 0.59,-2.19 0.39,-0.67 0.93,-1.2 1.62,-1.57 0.67,-0.38 1.41,-0.57 2.2,-0.57zm0.04 0.8c-0.62,0 -1.22,0.16 -1.78,0.46 -0.57,0.32 -1,0.75 -1.32,1.28 -0.32,0.54 -0.47,1.13 -0.47,1.79 0,0.98 0.35,1.8 1.05,2.47 0.69,0.67 1.53,1 2.52,1 0.65,0 1.27,-0.15 1.82,-0.46 0.57,-0.31 1.01,-0.73 1.31,-1.26 0.32,-0.53 0.48,-1.13 0.48,-1.79 0,-0.65 -0.16,-1.23 -0.48,-1.76 -0.3,-0.52 -0.75,-0.95 -1.32,-1.27 -0.57,-0.3 -1.17,-0.46 -1.81,-0.46zm6.18 7.6m0 -8.2l1.69 0c0.97,0 1.63,0.04 1.96,0.13 0.49,0.11 0.89,0.34 1.19,0.71 0.31,0.35 0.46,0.81 0.46,1.34 0,0.55 -0.15,1 -0.44,1.36 -0.3,0.36 -0.71,0.58 -1.24,0.71 -0.39,0.09 -1.1,0.14 -2.17,0.14l-0.6 0 0 3.81 -0.85 0 0 -8.2zm0.85 0.8l0 2.79 1.44 0.01c0.58,0 1.01,-0.05 1.28,-0.15 0.27,-0.1 0.48,-0.26 0.64,-0.49 0.15,-0.23 0.22,-0.49 0.22,-0.78 0,-0.27 -0.07,-0.52 -0.22,-0.75 -0.16,-0.23 -0.37,-0.39 -0.62,-0.48 -0.25,-0.1 -0.66,-0.15 -1.24,-0.15l-1.5 0zm6.13 7.4m0.85 0l-0.85 0 0 -8.2 4.25 0 0 0.8 -3.4 0 0 7.4zm4.25 0m4.41 -8.4c1.29,0 2.36,0.41 3.22,1.24 0.87,0.82 1.3,1.85 1.3,3.06 0,1.2 -0.42,2.22 -1.28,3.05 -0.88,0.83 -1.93,1.25 -3.17,1.25 -1.25,0 -2.31,-0.42 -3.18,-1.24 -0.86,-0.83 -1.3,-1.84 -1.3,-3.03 0,-0.78 0.2,-1.51 0.59,-2.19 0.39,-0.67 0.94,-1.2 1.62,-1.57 0.68,-0.38 1.41,-0.57 2.2,-0.57zm0.05 0.8c-0.63,0 -1.23,0.16 -1.79,0.46 -0.56,0.32 -1,0.75 -1.32,1.28 -0.32,0.54 -0.47,1.13 -0.47,1.79 0,0.98 0.35,1.8 1.05,2.47 0.7,0.67 1.53,1 2.53,1 0.65,0 1.26,-0.15 1.82,-0.46 0.56,-0.31 1,-0.73 1.31,-1.26 0.32,-0.53 0.47,-1.13 0.47,-1.79 0,-0.65 -0.15,-1.23 -0.47,-1.76 -0.31,-0.52 -0.76,-0.95 -1.33,-1.27 -0.56,-0.3 -1.17,-0.46 -1.8,-0.46zm6.2 7.6m0 -8.2l1.67 0c0.68,0 1.19,0.08 1.55,0.23 0.37,0.16 0.65,0.39 0.85,0.71 0.21,0.32 0.32,0.67 0.32,1.06 0,0.37 -0.09,0.7 -0.27,1 -0.19,0.3 -0.46,0.54 -0.82,0.72 0.45,0.15 0.78,0.32 1.02,0.52 0.25,0.19 0.43,0.43 0.56,0.71 0.13,0.27 0.2,0.57 0.2,0.9 0,0.65 -0.25,1.21 -0.75,1.66 -0.49,0.46 -1.17,0.69 -2.01,0.69l-2.32 0 0 -8.2zm0.82 0.8l0 2.63 0.49 0c0.59,0 1.03,-0.06 1.31,-0.16 0.27,-0.11 0.5,-0.28 0.65,-0.51 0.16,-0.22 0.25,-0.47 0.25,-0.76 0,-0.37 -0.13,-0.66 -0.4,-0.88 -0.29,-0.22 -0.71,-0.32 -1.32,-0.32l-0.98 0zm0 3.45l0 3.15 1.06 0c0.62,0 1.07,-0.06 1.37,-0.17 0.28,-0.13 0.52,-0.31 0.69,-0.56 0.18,-0.25 0.26,-0.51 0.26,-0.81 0,-0.37 -0.12,-0.69 -0.36,-0.95 -0.25,-0.27 -0.59,-0.46 -1.02,-0.56 -0.3,-0.07 -0.79,-0.1 -1.51,-0.1l-0.49 0zm5.93 3.95m0 -8.2l0.85 0 0 3.52 0.62 0c1.11,0 1.9,0.04 2.38,0.16 0.49,0.1 0.88,0.34 1.17,0.71 0.31,0.37 0.45,0.85 0.45,1.45 0,0.58 -0.14,1.06 -0.44,1.43 -0.28,0.38 -0.64,0.63 -1.09,0.76 -0.45,0.11 -1.2,0.17 -2.25,0.17l-1.69 0 0 -8.2zm0.85 7.4l0.91 0c0.96,0 1.57,-0.05 1.87,-0.14 0.28,-0.08 0.52,-0.24 0.68,-0.48 0.18,-0.24 0.26,-0.55 0.26,-0.91 0,-0.41 -0.1,-0.74 -0.31,-0.99 -0.23,-0.27 -0.5,-0.41 -0.83,-0.48 -0.33,-0.06 -0.96,-0.08 -1.86,-0.08l-0.72 0 0 3.08zm5.61 -7.4l0.85 0 0 8.2 -0.85 0 0 -8.2zm2.92 8.2m6.67 0l-0.88 0 0 -6.3 -5.6 6.3 -0.19 0 0 -8.2 0.85 0 0 6.4 5.64 -6.4 0.18 0 0 8.2zm-5.37 -10.17l0.76 0c0.13,0.19 0.3,0.34 0.53,0.43 0.21,0.1 0.48,0.15 0.78,0.15 0.3,0 0.56,-0.05 0.75,-0.13 0.19,-0.09 0.37,-0.24 0.53,-0.45l0.74 0c-0.09,0.33 -0.3,0.61 -0.65,0.83 -0.35,0.23 -0.81,0.34 -1.37,0.34 -0.57,0 -1.03,-0.11 -1.38,-0.33 -0.37,-0.21 -0.6,-0.5 -0.69,-0.84zm9.85 10.17m0.85 1.22l-0.85 0 0 -1.99 0.69 0 3.31 -7.43 0.3 0 3.52 7.43 0.65 0 0 1.99 -0.85 0 0 -1.22 -6.77 0 0 1.22zm0.79 -1.99l5.18 0 -2.66 -5.72 -2.52 5.72zm7.68 0.77m4.41 -8.4c1.28,0 2.36,0.41 3.22,1.24 0.86,0.82 1.3,1.85 1.3,3.06 0,1.2 -0.43,2.22 -1.29,3.05 -0.87,0.83 -1.92,1.25 -3.16,1.25 -1.26,0 -2.32,-0.42 -3.18,-1.24 -0.86,-0.83 -1.3,-1.84 -1.3,-3.03 0,-0.78 0.2,-1.51 0.59,-2.19 0.39,-0.67 0.93,-1.2 1.62,-1.57 0.67,-0.38 1.4,-0.57 2.2,-0.57zm0.04 0.8c-0.62,0 -1.23,0.16 -1.78,0.46 -0.57,0.32 -1,0.75 -1.32,1.28 -0.32,0.54 -0.48,1.13 -0.48,1.79 0,0.98 0.36,1.8 1.05,2.47 0.7,0.67 1.54,1 2.53,1 0.65,0 1.27,-0.15 1.82,-0.46 0.57,-0.31 1.01,-0.73 1.31,-1.26 0.32,-0.53 0.47,-1.13 0.47,-1.79 0,-0.65 -0.15,-1.23 -0.47,-1.76 -0.3,-0.52 -0.75,-0.95 -1.32,-1.27 -0.57,-0.3 -1.17,-0.46 -1.81,-0.46zm5.81 7.6m0 0l1.18 -8.2 0.17 0 3.46 6.73 3.43 -6.73 0.13 0 1.21 8.2 -0.81 0 -0.85 -5.87 -3.01 5.87 -0.23 0 -3.02 -5.91 -0.82 5.91 -0.84 0z"/>
 </g>
</svg>
